Twin Peaks: Fire Walk with Me (1992)

Director: David Lynch

Twin Peaks: Fire Walk with Me is a 1992 American psychological thriller film directed by David Lynch and written by Lynch and Robert Engels. The film can be viewed as both prologue and epilogue to the television series Twin Peaks (1990–91), created by Lynch and Mark Frost. The film revolves around the investigation into the murder of Teresa Banks (Pamela Gidley) and the last seven days in the life of Laura Palmer (Sheryl Lee), a popular high school student in the fictional Washington town of Twin Peaks, of which these two connected murders were the central mysteries of the television series. Additionally, the film's convoluted narrative references - and clarifies - Agent Dale Cooper (Kyle MacLachlan)'s fate in the series finale. Thus, the film is often considered a prequel - however, it also has features more typical of a sequel.

Most of the television cast returned for the film, with the notable exceptions of Lara Flynn Boyle who declined to return as Laura’s best friend Donna Hayward (she was replaced by Moira Kelly), and Sherilyn Fenn due to scheduling conflicts. Also, Kyle MacLachlan, who starred as Special Agent Dale Cooper in the TV series, was reluctant to return out of fear of getting typecast, so his presence in the film is smaller than originally planned.

Fire Walk with Me was greeted at the 1992 Cannes Film Festival with booing from the audience and met with negative reviews in the United States. The film fared poorly in the United States at the box office, partially because it was released almost a year after the television series was canceled (due to a sharp ratings decline in the second season), partially due to its incomprehensibility to the uninitiated and the fact that the film only appeals to a subset of the viewers of the Twin Peaks series. However, it was a commercial hit in Japan.

Filming began on September 5, 1991 in Snoqualmie, Washington and lasted until October of the same year, with four weeks dedicated to locations in Washington, and another four weeks of interiors and additional locations in Los Angeles, California. When shooting went over schedule in Seattle, Washington, Laura's death in the train car had to be shot in Los Angeles on soundstage during the last day of shooting, October 31.

Media Info:
General
Complete name                    : J:\Seeding\Twin Peaks Fire Walk with Me (1992)[DVDRip][big_dad_e™]\Twin Peaks Fire Walk with Me (1992)[DVDRip][big_dad_e™].avi
Format                           : AVI
Format/Info                      : Audio Video Interleave
Format profile                   : OpenDML
File size                        : 2.68 GiB
Duration                         : 2h 14mn
Overall bit rate                 : 2 847 Kbps
Writing application              : Lavf51.12.1

Video
ID                               : 0
Format                           : MPEG-4 Visual
Format profile                   : Simple@L1
Format settings, BVOP            : No
Format settings, QPel            : No
Format settings, GMC             : No warppoints
Format settings, Matrix          : Default (H.263)
Codec ID                         : DX50
Codec ID/Hint                    : DivX 5
Duration                         : 2h 14mn
Bit rate                         : 2 516 Kbps
Width                            : 852 pixels
Height                           : 480 pixels
Display aspect ratio             : 16:9
Frame rate                       : 23.976 fps
Color space                      : YUV
Chroma subsampling               : 4:2:0
Bit depth                        : 8 bits
Scan type                        : Progressive
Bits/(Pixel*Frame)               : 0.257
Stream size                      : 2.37 GiB (88%)
Writing library                  : Lavc51.40.4

Audio
ID                               : 1
Format                           : MPEG Audio
Format version                   : Version 1
Format profile                   : Layer 3
Mode                             : Joint stereo
Codec ID                         : 55
Codec ID/Hint                    : MP3
Duration                         : 2h 14mn
Bit rate mode                    : Constant
Bit rate                         : 320 Kbps
Channel(s)                       : 2 channels
Sampling rate                    : 44.1 KHz
Stream size                      : 308 MiB (11%)
Alignment                        : Aligned on interleaves
Interleave, duration             : 26 ms (0.63 video frame)
Writing library                  : LAME3.97

File Scan:
Malwarebytes' Anti-Malware 1.50
www.malwarebytes.org

Database version: 5214

Windows 5.1.2600 Service Pack 3
Internet Explorer 8.0.6001.18702

11/29/2010 9:28:27 PM
mbam-log-2010-11-29 (21-28-27).txt

Scan type: Quick scan
Objects scanned: 5
Time elapsed: 24 second(s)

Memory Processes Infected: 0
Memory Modules Infected: 0
Registry Keys Infected: 0
Registry Values Infected: 0
Registry Data Items Infected: 0
Folders Infected: 0
Files Infected: 0

Memory Processes Infected:
(No malicious items detected)

Memory Modules Infected:
(No malicious items detected)

Registry Keys Infected:
(No malicious items detected)

Registry Values Infected:
(No malicious items detected)

Registry Data Items Infected:
(No malicious items detected)

Folders Infected:
(No malicious items detected)

Files Infected:
(No malicious items detected)

When using TPB please read these important notes:
  
01- Anti-malware apps may warn about keygens, patches, cracks, etc., because of 
    their capabilities, (generating codes, etc.). Sometimes they're added to 
    the virus/spyware database and will be detected as malware. If you don't trust
    the keygens, patches, cracks, etc., don't use them. 
    
02- Before running .exe-files, keygens, patches, cracks, etc., always check first 
    if they can be unpacked. Often some third party added a virus to the 
    original file, repacked it and uploaded it again.

03- Letting anti-malware apps send scan results to their companies can cause
    keygens, patches, cracks, etc., to be added to their virus-database.

04- Firewalls which are set to automatically determine connections will allow 
    apps & malware!. Avoid this by manually configuring your firewall.

05- Usually (new) torrents with many downloads and seeders in a brief period is
    suspicious! Torrents with the Skull & Crossbones icon are trusted.

06- Some people use multiple accounts and post fake comments 
    and/or files trying to spread confusion. They seldom seriously
    comment or have any torrents, or a just a few to look passable.

07- Clicking on unknown links can cause malware to be installed on your machine.
  
08- In general often there are more fake and negative comments than reliable and
    positive comments.

09- In some countries uploading/downloading copyright protected material is 
    forbidden, but showing some appreciation to reliable up-loaders is not.

10- Posting fake and negative comments or fake/infected uploads on TPB can result
    in getting banned from TPB!

Requests?  Find me on SuprBay.
 

For reporting bad or suspicious torrents:  
http://forum.suprbay.org/forumdisplay.php?fid=29

For more of my torrents: 
https://thepiratebay.org/user/big_dad_e/  (Secured)

All torrents scanned with:
Norton Anti-virus
Malwarebytes' Anti-malware
 
http://www.pirate-party.us/

ALWAYS SEED & THANKS SEEDERS!